# xmcd CD database file
#
# Track frame offsets:
#	150
#	16085
#	27715
#	40297
#	53655
#	66940
#	80765
#	91055
#	102382
#	114405
#	128952
#	142242
#	155922
#	169640
#	183055
#	195777
#	208557
#	221177
#	234945
#	250055
#	265132
#	277572
#	290165
#	299787
#	314920
#	326065
#
# Disc length: 4715 seconds
#
# Revision: 0
# Processed by: cddbd v1.5.2PL0 Copyright (c) Steve Scherf et al.
# Submitted via: CDex 1.51
#
DISCID=8c12691a
DTITLE=Chet Baker Qiuntet Feat. Russ Freeman - Cool Baker Vol. 1&2
DYEAR=1952
DGENRE=Jazz
TTITLE0=Isn't It Romantic
TTITLE1=The Lamp Is Low
TTITLE2=This Time The Dream's On Me
TTITLE3=Maid In Mexico
TTITLE4=Russ Job
TTITLE5=Imagination
TTITLE6=Long Ago And Far Away (10''Lp Take)
TTITLE7=Long Ago And Far Away (12''Lp Take)
TTITLE8=Carson City Stage
TTITLE9=Easy To Love
TTITLE10=Batter Up
TTITLE11=No Ties  (10''Lp Take)
TTITLE12=No Ties  (12''Lp Take)
TTITLE13=All The Things You Are
TTITLE14=The Thrill Is Gone (10''Lp Take)
TTITLE15=The Thrill Is Gone (12''Lp Take)
TTITLE16=Band Aid
TTITLE17=Bea's Flat
TTITLE18=Moon Love (10''Lp Take)
TTITLE19=Moon Love (12''Lp Take)
TTITLE20=HappyLittle Sunbeam
TTITLE21=HappyLittle Sunbeam Alt.)
TTITLE22=I Fall In Love Too Easily
TTITLE23=Winter Wonderland (78 rpm take)
TTITLE24=Winter Wonderland (LP take)
TTITLE25=Russ Job (Live version)
EXTD=YEAR: 1952
EXTT0=
EXTT1=
EXTT2=
EXTT3=
EXTT4=
EXTT5=
EXTT6=
EXTT7=
EXTT8=
EXTT9=
EXTT10=
EXTT11=
EXTT12=
EXTT13=
EXTT14=
EXTT15=
EXTT16=
EXTT17=
EXTT18=
EXTT19=
EXTT20=
EXTT21=
EXTT22=
EXTT23=
EXTT24=
EXTT25=
PLAYORDER=
